<svg xmlns="http://www.w3.org/2000/svg" style="display: none;">
  <symbol id="conway" viewBox="0 0 512 512">
    <title>Conway</title>
    <path d="M128 320L24.5 320c-24.9 0-40.2-27.1-27.4-48.5L50 183.3C58.7 168.8 74.3 160 91.2 160l95 0c76.1-128.9 189.6-135.4 265.5-124.3 12.8 1.9 22.8 11.9 24.6 24.6 11.1 75.9 4.6 189.4-124.3 265.5l0 95c0 16.9-8.8 32.5-23.3 41.2l-88.2 52.9c-21.3 12.8-48.5-2.6-48.5-27.4L192 384c0-35.3-28.7-64-64-64l-.1 0zM400 160a48 48 0 1 0 -96 0 48 48 0 1 0 96 0z"/>
  </symbol>

  <symbol id="snake" viewBox="0 0 448 512">
    <title>Snake</title>
    <path d="M224 96c0-53 43-96 96-96l38.4 0C407.9 0 448 40.1 448 89.6L448 376c0 75.1-60.9 136-136 136S176 451.1 176 376l0-80c0-22.1-17.9-40-40-40s-40 17.9-40 40l0 168c0 26.5-21.5 48-48 48S0 490.5 0 464L0 296c0-75.1 60.9-136 136-136s136 60.9 136 136l0 80c0 22.1 17.9 40 40 40s40-17.9 40-40l0-184-32 0c-53 0-96-43-96-96zm144-8a24 24 0 1 0 -48 0 24 24 0 1 0 48 0z"/>
  </symbol>

  <symbol id="pong" viewBox="0 0 512 512">
    <title>Pong</title>
    <path d="M97 127l67.4-67.4c38.2-38.2 90-59.6 144-59.6 112.5 0 203.7 91.2 203.7 203.6 0 46.4-15.8 91.1-44.5 127-23.6-16.8-52.4-26.7-83.5-26.7-31.1 0-59.9 9.9-83.4 26.6L97 127zM240 448c0 9.7 1 19.1 2.8 28.2-19.8-5.2-38-15.5-52.7-30.2-12.2-12.2-31.9-12.2-44.1 0L96.6 495.4c-10.6 10.6-25 16.6-40 16.6-31.2 0-56.6-25.3-56.6-56.6 0-15 6-29.4 16.6-40l49.4-49.4c12.2-12.2 12.2-31.9 0-44.1-21.7-21.7-33.9-51.2-33.9-81.9 0-29.4 11.1-57.6 31.1-79L266.6 364.6C249.9 388.1 240 416.9 240 448zm144-96a96 96 0 1 1 0 192 96 96 0 1 1 0-192z"/>
  </symbol>
</svg>