<svg xmlns="http://www.w3.org/2000/svg" style="display: none;">
  <symbol id="github" viewBox="0 0 512 512">
    <title>GitHub</title>
    <path d="M173.9 397.4c0 2-2.3 3.6-5.2 3.6-3.3 .3-5.6-1.3-5.6-3.6 0-2 2.3-3.6 5.2-3.6 3-.3 5.6 1.3 5.6 3.6zm-31.1-4.5c-.7 2 1.3 4.3 4.3 4.9 2.6 1 5.6 0 6.2-2s-1.3-4.3-4.3-5.2c-2.6-.7-5.5 .3-6.2 2.3zm44.2-1.7c-2.9 .7-4.9 2.6-4.6 4.9 .3 2 2.9 3.3 5.9 2.6 2.9-.7 4.9-2.6 4.6-4.6-.3-1.9-3-3.2-5.9-2.9zM252.8 8c-138.7 0-244.8 105.3-244.8 244 0 110.9 69.8 205.8 169.5 239.2 12.8 2.3 17.3-5.6 17.3-12.1 0-6.2-.3-40.4-.3-61.4 0 0-70 15-84.7-29.8 0 0-11.4-29.1-27.8-36.6 0 0-22.9-15.7 1.6-15.4 0 0 24.9 2 38.6 25.8 21.9 38.6 58.6 27.5 72.9 20.9 2.3-16 8.8-27.1 16-33.7-55.9-6.2-112.3-14.3-112.3-110.5 0-27.5 7.6-41.3 23.6-58.9-2.6-6.5-11.1-33.3 2.6-67.9 20.9-6.5 69 27 69 27 20-5.6 41.5-8.5 62.8-8.5s42.8 2.9 62.8 8.5c0 0 48.1-33.6 69-27 13.7 34.7 5.2 61.4 2.6 67.9 16 17.7 25.8 31.5 25.8 58.9 0 96.5-58.9 104.2-114.8 110.5 9.2 7.9 17 22.9 17 46.4 0 33.7-.3 75.4-.3 83.6 0 6.5 4.6 14.4 17.3 12.1 100-33.2 167.8-128.1 167.8-239 0-138.7-112.5-244-251.2-244zM105.2 352.9c-1.3 1-1 3.3 .7 5.2 1.6 1.6 3.9 2.3 5.2 1 1.3-1 1-3.3-.7-5.2-1.6-1.6-3.9-2.3-5.2-1zm-10.8-8.1c-.7 1.3 .3 2.9 2.3 3.9 1.6 1 3.6 .7 4.3-.7 .7-1.3-.3-2.9-2.3-3.9-2-.6-3.6-.3-4.3 .7zm32.4 35.6c-1.6 1.3-1 4.3 1.3 6.2 2.3 2.3 5.2 2.6 6.5 1 1.3-1.3 .7-4.3-1.3-6.2-2.2-2.3-5.2-2.6-6.5-1zm-11.4-14.7c-1.6 1-1.6 3.6 0 5.9s4.3 3.3 5.6 2.3c1.6-1.3 1.6-3.9 0-6.2-1.4-2.3-4-3.3-5.6-2z"/>
  </symbol>

  <symbol id="email" viewBox="0 0 512 512">
    <title>E-Mail</title>
    <path d="M48 64c-26.5 0-48 21.5-48 48 0 15.1 7.1 29.3 19.2 38.4l208 156c17.1 12.8 40.5 12.8 57.6 0l208-156c12.1-9.1 19.2-23.3 19.2-38.4 0-26.5-21.5-48-48-48L48 64zM0 196L0 384c0 35.3 28.7 64 64 64l384 0c35.3 0 64-28.7 64-64l0-188-198.4 148.8c-34.1 25.6-81.1 25.6-115.2 0L0 196z"/>
  </symbol>

  <symbol id="steam" viewBox="0 0 512 512">
    <title>Steam</title>
    <path d="M504 256c0 137-111.2 248-248.4 248-113.8 0-209.6-76.3-239-180.4l95.2 39.3c6.4 32.1 34.9 56.4 68.9 56.4 39.2 0 71.9-32.4 70.2-73.5l84.5-60.2c52.1 1.3 95.8-40.9 95.8-93.5 0-51.6-42-93.5-93.7-93.5s-93.7 42-93.7 93.5l0 1.2-59.2 85.7c-15.5-.9-30.7 3.4-43.5 12.1L8 236.1C18.2 108.4 125.1 8 255.6 8 392.8 8 504 119 504 256zM163.7 384.3l-30.5-12.6c5.6 11.6 15.3 20.8 27.2 25.8 26.9 11.2 57.8-1.6 69-28.4 5.4-13 5.5-27.3 .1-40.3S214 305.6 201 300.2c-12.9-5.4-26.7-5.2-38.9-.6l31.5 13c19.8 8.2 29.2 30.9 20.9 50.7-8.3 19.9-31 29.2-50.8 21zM337.5 129.8a62.3 62.3 0 1 1 0 124.6 62.3 62.3 0 1 1 0-124.6zm.1 109a46.8 46.8 0 1 0 0-93.6 46.8 46.8 0 1 0 0 93.6z"/>
  </symbol>

  <symbol id="server-status" viewBox="0 0 448 512">
    <title>Server Status</title>
    <path d="M64 32C28.7 32 0 60.7 0 96l0 64c0 35.3 28.7 64 64 64l320 0c35.3 0 64-28.7 64-64l0-64c0-35.3-28.7-64-64-64L64 32zm216 72a24 24 0 1 1 0 48 24 24 0 1 1 0-48zm56 24a24 24 0 1 1 48 0 24 24 0 1 1 -48 0zM64 288c-35.3 0-64 28.7-64 64l0 64c0 35.3 28.7 64 64 64l320 0c35.3 0 64-28.7 64-64l0-64c0-35.3-28.7-64-64-64L64 288zm216 72a24 24 0 1 1 0 48 24 24 0 1 1 0-48zm56 24a24 24 0 1 1 48 0 24 24 0 1 1 -48 0z"/>
  </symbol>

  <symbol id="games" viewBox="0 0 640 512">
    <title>Games</title>
    <path d="M448 64c106 0 192 86 192 192S554 448 448 448l-256 0C86 448 0 362 0 256S86 64 192 64l256 0zM192 176c-13.3 0-24 10.7-24 24l0 32-32 0c-13.3 0-24 10.7-24 24s10.7 24 24 24l32 0 0 32c0 13.3 10.7 24 24 24s24-10.7 24-24l0-32 32 0c13.3 0 24-10.7 24-24s-10.7-24-24-24l-32 0 0-32c0-13.3-10.7-24-24-24zm240 96a32 32 0 1 0 0 64 32 32 0 1 0 0-64zm64-96a32 32 0 1 0 0 64 32 32 0 1 0 0-64z"/>
  </symbol>

  <symbol id="key" viewBox="0 0 512 512">
    <title>Games</title>
    <path d="M336 352c97.2 0 176-78.8 176-176S433.2 0 336 0 160 78.8 160 176c0 18.7 2.9 36.8 8.3 53.7L7 391c-4.5 4.5-7 10.6-7 17l0 80c0 13.3 10.7 24 24 24l80 0c13.3 0 24-10.7 24-24l0-40 40 0c13.3 0 24-10.7 24-24l0-40 40 0c6.4 0 12.5-2.5 17-7l33.3-33.3c16.9 5.4 35 8.3 53.7 8.3zM376 96a40 40 0 1 1 0 80 40 40 0 1 1 0-80z"/>
  </symbol>

  <symbol id="discord" viewBox="0 0 576 512">
    <title>Discord</title>
    <path d="M492.5 69.8c-.2-.3-.4-.6-.8-.7-38.1-17.5-78.4-30-119.7-37.1-.4-.1-.8 0-1.1 .1s-.6 .4-.8 .8c-5.5 9.9-10.5 20.2-14.9 30.6-44.6-6.8-89.9-6.8-134.4 0-4.5-10.5-9.5-20.7-15.1-30.6-.2-.3-.5-.6-.8-.8s-.7-.2-1.1-.2c-41.3 7.1-81.6 19.6-119.7 37.1-.3 .1-.6 .4-.8 .7-76.2 113.8-97.1 224.9-86.9 334.5 0 .3 .1 .5 .2 .8s.3 .4 .5 .6c44.4 32.9 94 58 146.8 74.2 .4 .1 .8 .1 1.1 0s.7-.4 .9-.7c11.3-15.4 21.4-31.8 30-48.8 .1-.2 .2-.5 .2-.8s0-.5-.1-.8-.2-.5-.4-.6-.4-.3-.7-.4c-15.8-6.1-31.2-13.4-45.9-21.9-.3-.2-.5-.4-.7-.6s-.3-.6-.3-.9 0-.6 .2-.9 .3-.5 .6-.7c3.1-2.3 6.2-4.7 9.1-7.1 .3-.2 .6-.4 .9-.4s.7 0 1 .1c96.2 43.9 200.4 43.9 295.5 0 .3-.1 .7-.2 1-.2s.7 .2 .9 .4c2.9 2.4 6 4.9 9.1 7.2 .2 .2 .4 .4 .6 .7s.2 .6 .2 .9-.1 .6-.3 .9-.4 .5-.6 .6c-14.7 8.6-30 15.9-45.9 21.8-.2 .1-.5 .2-.7 .4s-.3 .4-.4 .7-.1 .5-.1 .8 .1 .5 .2 .8c8.8 17 18.8 33.3 30 48.8 .2 .3 .6 .6 .9 .7s.8 .1 1.1 0c52.9-16.2 102.6-41.3 147.1-74.2 .2-.2 .4-.4 .5-.6s.2-.5 .2-.8c12.3-126.8-20.5-236.9-86.9-334.5zm-302 267.7c-29 0-52.8-26.6-52.8-59.2s23.4-59.2 52.8-59.2c29.7 0 53.3 26.8 52.8 59.2 0 32.7-23.4 59.2-52.8 59.2zm195.4 0c-29 0-52.8-26.6-52.8-59.2s23.4-59.2 52.8-59.2c29.7 0 53.3 26.8 52.8 59.2 0 32.7-23.2 59.2-52.8 59.2z"/>
  </symbol>
</svg>